<svg version="1.2" xmlns="http://www.w3.org/2000/svg" viewBox="0 0 125 100" width="125" height="100">
	<title>New Project</title>
	<style>
		.s0 { fill: #ffffff } 
	</style>
	<path id="&lt;Compound Path&gt;" class="s0" d="m30.6 17.2l-18.8 32.3 18.4 32.7h20l16.8-75.2h33.5l24.5 42.5-24.5 42.9h-29.4l0.4-9.8h22.9l18.8-32.7-18.8-32.7-19.6 0.4-17.2 74.8h-33.1l-24.5-42.5 24.9-42.9h28.6v10.2z"/>
	<path id="&lt;Path&gt;" class="s0" d="m33.1 49.9l14.7 25.3h-11.4l-14.7-25.3 14.2-25.3h11.9z"/>
	<path id="&lt;Path&gt;" class="s0" d="m77.2 24.6h11.4l14.3 24.9-14.3 25.7h-11.4l14.3-25.3z"/>
	<path id="&lt;Compound Path&gt; copy" class="s0" d="m30.6 17.2l-18.8 32.3 18.4 32.7h20l16.8-75.2h33.5l24.5 42.5-24.5 42.9h-29.4l0.4-9.8h22.9l18.8-32.7-18.8-32.7-19.6 0.4-17.2 74.8h-33.1l-24.5-42.5 24.9-42.9h28.6v10.2z"/>
	<path id="&lt;Path&gt; copy" class="s0" d="m33.1 49.9l14.7 25.3h-11.4l-14.7-25.3 14.2-25.3h11.9z"/>
	<path id="&lt;Path&gt; copy 2" class="s0" d="m77.2 24.6h11.4l14.3 24.9-14.3 25.7h-11.4l14.3-25.3z"/>
</svg>