<svg xmlns="http://www.w3.org/2000/svg" version="1.1" xmlns:xlink="http://www.w3.org/1999/xlink" xmlns:svgjs="http://svgjs.com/svgjs" width="512" height="512" x="0" y="0" viewBox="0 0 512 512" style="enable-background:new 0 0 512 512" xml:space="preserve" class=""><g><g><path d="m345.866 198.611-35.59 35.57v.01c-16.68 55.95-68.61 96.86-129.91 96.86-35.915 0-68.44-13.987-92.622-36.689l93.148-93.148 49.343 49.344c5.855 5.855 15.351 5.858 21.209.004l139.394-139.3 19.296 19.297c9.428 9.429 25.594 2.732 25.607-10.592l.1-104.95c.004-3.985-1.578-7.809-4.397-10.625-4.81-4.806-10.515-4.367-10.627-4.39l-104.875.175c-13.328.021-19.998 16.189-10.582 25.606l19.025 19.025-84.006 84.006-50.114-50.115c-5.854-5.854-15.356-5.858-21.213 0l-124.015 124.014c-5.688-107.96 111.282-178.05 203.379-124.361l21.84-21.84c-106.655-69.111-251.366 4.312-255.33 133.889-2.756 93.862 72.646 170.649 165.44 170.649 90.24.001 163.86-72.589 165.5-162.439z" fill="#000000" data-original="#000000" class=""></path><path d="m492.756 443.968-145.95-145.95c-15.967 25.833-37.774 47.687-63.569 63.71l145.879 145.878c5.856 5.857 15.354 5.859 21.213 0l42.427-42.426c5.855-5.853 5.857-15.356 0-21.212z" fill="#000000" data-original="#000000" class=""></path></g></g></svg>