<svg xmlns="http://www.w3.org/2000/svg" version="1.1" xmlns:xlink="http://www.w3.org/1999/xlink" xmlns:svgjs="http://svgjs.com/svgjs" width="512" height="512" x="0" y="0" viewBox="0 0 16.933333 16.933334" style="enable-background:new 0 0 512 512" xml:space="preserve" class=""><g transform="matrix(1.0599999999999998,0,0,1.0599999999999998,-0.5079998230934155,-0.5079501342773423)"><g id="layer1" transform="translate(0 -280.067)"><path id="path21599-4" d="m3.4390649 280.59479c-.4351496 0-.7932341.35807-.7932341.79323v1.32344h11.6406322v-1.32344c0-.43516-.357555-.79323-.792716-.79323zm.5296826 1.05833c.1454997.00014.2634086.11806.2635488.26356.0001403.14569-.117848.26392-.2635488.26406-.1458992.00015-.2642155-.11817-.2640674-.26406.0001403-.14571.1183667-.2637.2640674-.26356zm1.0588493 0c.1457008-.00014.2639272.11785.2640674.26356.0001508.14589-.1181655.26421-.2640674.26406-.1456981-.00014-.263689-.11837-.2635488-.26406.0001402-.1455.1180491-.26342.2635488-.26356zm1.0583334 0c.1457007-.00014.2639271.11785.2640674.26356.0001508.14589-.1181656.26421-.2640674.26406-.1456981-.00014-.2636891-.11837-.2635489-.26406.0001403-.1455.1180492-.26342.2635489-.26356zm3.6896996.00053h3.1889512c.34504.008.34504.52151 0 .52917h-3.1760342c-.345308.009-.3701-.50491-.01291-.52917zm-8.4532316.52813c-.43516018 0-.79323408.35963-.79323408.79479v9.5255c0 .43517.3580739.79272.79323408.79272h14.2869818c.43516 0 .794784-.35755.794784-.79272v-9.52551c0-.43516-.359624-.79479-.794784-.79479h-.792716v.52917h.792716c.151151 0 .265617.11446.265617.26562v7.6724h-14.8182167v-7.6724c0-.15116.1144561-.26562.2656179-.26562h.7942659v-.52917zm1.3234326 1.05884v6.87917h11.6406322v-6.87917zm6.617684 1.05524c.181491.001.307933.18058.248047.35191l-1.5880157 4.76354c-.1119664.33486-.614262.16691-.5022956-.16795l1.588016-4.76198c.034764-.111.1379353-.18628.2542483-.18552zm1.4898322 1.12293 1.585949 1.32446c.126643.10578.126643.3004 0 .40618l-1.585949 1.3224c-.272111.24266-.626595-.18142-.339514-.40618l1.343586-1.11931-1.343586-1.12086c-.184716-.1495-.09404-.44781.156062-.46974.07583-.00004.136046.0225.183452.0631zm-4.4100672-.0625c.2525527-.008.3711945.30915.1756992.46922l-1.3435859 1.12086 1.3435859 1.11931c.2996935.22225-.064934.66047-.3379629.40618l-1.5875-1.3224c-.1266428-.10578-.1266428-.3004 0-.40618l1.5875-1.32446c.045498-.0385.1026769-.0606.1622637-.0625zm2.6510007 6.35051c.3531213 0 .3531213.52969 0 .52969h-1.0567829c-.3531209.007-.3641487-.52245-.00516-.52969zm-2.2076172 2.11719c-.059701.16051-.1498627.33942-.2904226.52968h3.9387783c-.140439-.19026-.230841-.36915-.29042-.52968zm-1.2319662 1.05885c-.4351602 0-.7932341.35755-.7932341.79271v.52969c-.0005291.14632.1177475.26532.2640674.26561h6.8807166c.146119-.00052.26411-.11949.263549-.26561v-.52969c0-.43516-.357555-.79271-.792715-.79271z" font-variant-ligatures="normal" font-variant-position="normal" font-variant-caps="normal" font-variant-numeric="normal" font-variant-alternates="normal" font-feature-settings="normal" text-indent="0" text-align="start" text-decoration-line="none" text-decoration-style="solid" text-decoration-color="rgb(0,0,0)" text-transform="none" text-orientation="mixed" white-space="normal" shape-padding="0" isolation="auto" mix-blend-mode="normal" solid-color="rgb(0,0,0)" solid-opacity="1" vector-effect="none" fill="#000000" data-original="#000000" class=""></path></g></g></svg>